<svg width="46" height="46" viewBox="0 0 46 46" fill="none" xmlns="http://www.w3.org/2000/svg">
<g clip-path="url(#clip0_181_22)">
<path d="M40.25 37.375H38.3237L35.5494 22.5687C34.5144 17.135 31.2369 14.375 25.6594 14.375H20.3406C14.8637 14.375 11.2556 17.3938 10.4506 22.5831L7.67625 37.375H5.75C4.9875 37.375 4.25623 37.6779 3.71707 38.2171C3.1779 38.7562 2.875 39.4875 2.875 40.25C2.875 41.0125 3.1779 41.7438 3.71707 42.2829C4.25623 42.8221 4.9875 43.125 5.75 43.125H40.25C41.0125 43.125 41.7438 42.8221 42.2829 42.2829C42.8221 41.7438 43.125 41.0125 43.125 40.25C43.125 39.4875 42.8221 38.7562 42.2829 38.2171C41.7438 37.6779 41.0125 37.375 40.25 37.375ZM13.5269 37.375L16.1144 23.5462C16.5025 21.045 17.6525 20.1106 20.3406 20.1106H25.6594C28.4194 20.1106 29.3825 20.9013 29.9 23.6325L32.4731 37.375H13.5269Z" fill="white"/>
<path d="M23 11.5C23.7625 11.5 24.4938 11.1971 25.0329 10.6579C25.5721 10.1188 25.875 9.3875 25.875 8.625V2.875C25.875 2.1125 25.5721 1.38124 25.0329 0.842068C24.4938 0.302901 23.7625 0 23 0C22.2375 0 21.5062 0.302901 20.9671 0.842068C20.4279 1.38124 20.125 2.1125 20.125 2.875V8.625C20.125 9.3875 20.4279 10.1188 20.9671 10.6579C21.5062 11.1971 22.2375 11.5 23 11.5Z" fill="white"/>
<path d="M45.8563 16.3443C45.6137 15.6222 45.0945 15.0259 44.4126 14.6863C43.7307 14.3467 42.9419 14.2916 42.2194 14.5331L37.9069 15.9706C37.5358 16.0795 37.1905 16.2621 36.8916 16.5075C36.5928 16.753 36.3465 17.0562 36.1676 17.3991C35.9887 17.7419 35.8807 18.1173 35.8503 18.5028C35.8198 18.8884 35.8674 19.2761 35.9903 19.6428C36.1132 20.0094 36.3088 20.3476 36.5654 20.6369C36.822 20.9262 37.1343 21.1608 37.4837 21.3266C37.8331 21.4924 38.2123 21.5861 38.5987 21.6019C38.9851 21.6177 39.3707 21.5554 39.7325 21.4187L44.045 19.9812C44.7671 19.7387 45.3635 19.2194 45.7031 18.5375C46.0427 17.8556 46.0978 17.0668 45.8563 16.3443V16.3443Z" fill="white"/>
<path d="M7.18751 21.5625C7.8719 21.5644 8.53451 21.3221 9.05622 20.8792C9.57793 20.4362 9.92452 19.8217 10.0337 19.146C10.1428 18.4704 10.0073 17.778 9.65163 17.1933C9.29593 16.6086 8.74331 16.17 8.09313 15.9563L3.78063 14.5188C3.42196 14.3999 3.04338 14.3527 2.66649 14.3801C2.28961 14.4075 1.92181 14.5089 1.5841 14.6784C0.902051 15.0207 0.383946 15.62 0.143759 16.3444C-0.0964273 17.0688 -0.0390207 17.8589 0.30335 18.5409C0.645721 19.223 1.24501 19.7411 1.96938 19.9813L6.28188 21.4188C6.57412 21.5148 6.87989 21.5634 7.18751 21.5625Z" fill="white"/>
<path d="M31.4669 13.8864C32.1001 14.3084 32.8748 14.4621 33.6212 14.3139C34.3676 14.1657 35.0248 13.7276 35.4487 13.0957L38.3237 8.78323C38.7469 8.14845 38.9006 7.37156 38.751 6.62346C38.6014 5.87537 38.1607 5.21735 37.5259 4.79416C36.8912 4.37098 36.1143 4.21729 35.3662 4.36691C34.6181 4.51653 33.9601 4.9572 33.5369 5.59198L30.6619 9.90448C30.2412 10.5394 30.0897 11.3154 30.2407 12.0619C30.3916 12.8085 30.8326 13.4646 31.4669 13.8864V13.8864Z" fill="white"/>
<path d="M10.5512 13.0957C10.9744 13.7305 11.6324 14.1712 12.3805 14.3208C13.1286 14.4704 13.9055 14.3167 14.5403 13.8935C15.1751 13.4704 15.6158 12.8123 15.7654 12.0642C15.915 11.3161 15.7613 10.5393 15.3381 9.90448L12.4631 5.59198C12.2536 5.27767 11.9842 5.0077 11.6703 4.79751C11.3564 4.58731 11.0042 4.44099 10.6338 4.36691C9.88573 4.21729 9.10883 4.37098 8.47406 4.79416C7.83928 5.21735 7.39861 5.87537 7.24899 6.62346C7.09937 7.37156 7.25306 8.14845 7.67624 8.78323L10.5512 13.0957Z" fill="white"/>
</g>
<defs>
<clipPath id="clip0_181_22">
<rect width="46" height="46" fill="white"/>
</clipPath>
</defs>
</svg>
