<svg width="64" height="64" viewBox="0 0 64 64" fill="none" xmlns="http://www.w3.org/2000/svg">
<path d="M50 38.3599C50 43.2664 48.0509 47.9719 44.5815 51.4414C41.1121 54.9108 36.4065 56.8599 31.5 56.8599C26.5935 56.8599 21.8879 54.9108 18.4185 51.4414C14.9491 47.9719 13 43.2664 13 38.3599C13 22.1699 28 7.13989 31.5 7.13989C35 7.13989 50 22.1699 50 38.3599Z" fill="white"/>
<path d="M29.3 34.0701C29.3 37.3901 27.2 39.1201 24.9 39.1201C22.6 39.1201 20.58 37.3101 20.58 34.3301C20.58 31.3501 22.31 29.3301 25.02 29.3301C27.73 29.3301 29.3 31.3601 29.3 34.0701ZM23.3 34.2401C23.3 35.9001 23.86 37.1001 24.94 37.1001C26.02 37.1001 26.5 36.0301 26.5 34.2401C26.5 32.6301 26.06 31.3801 24.91 31.3801C23.76 31.3801 23.34 32.6601 23.34 34.2401H23.3ZM43 40.6701C43 43.9901 40.9 45.7201 38.6 45.7201C36.3 45.7201 34.3 43.9101 34.28 40.9301C34.26 37.9501 36.01 35.9301 38.72 35.9301C41.43 35.9301 43 38.0001 43 40.6701ZM37.07 40.8401C37.07 42.5001 37.61 43.7001 38.68 43.7001C39.75 43.7001 40.24 42.6301 40.24 40.8401C40.24 39.2301 39.82 37.9801 38.68 37.9801C37.54 37.9801 37.11 39.2501 37.11 40.8401H37.07Z" fill="#518EF8"/>
<path d="M36.7 29.6899L27.45 44.7199" stroke="#518EF8" stroke-width="2" stroke-linecap="round" stroke-linejoin="round"/>
</svg>
