<svg width="51" height="51" viewBox="0 0 51 51" fill="none" xmlns="http://www.w3.org/2000/svg">
<path d="M21.66 25.0571C21.66 27.2471 23.437 29.0231 25.626 29.0231C27.164 29.0231 28.482 28.1391 29.14 26.8601L29.151 26.8701L36.391 13.8081L23.681 21.6021L23.693 21.6141C22.486 22.2951 21.66 23.5731 21.66 25.0571Z" fill="white"/>
<path d="M41.604 6.159C37.54 2.607 32.289 0.339 26.289 0V6.027C31.289 6.345 34.235 7.933 37.193 10.411L41.604 6.159Z" fill="white"/>
<path d="M44.435 23.178H50.455C50.051 17.178 47.704 12.248 44.06 8.20801L39.801 12.441C42.367 15.381 44.055 19.178 44.435 23.178Z" fill="white"/>
<path d="M44.463 26.178C43.826 36.178 35.541 44.109 25.421 44.109C14.886 44.109 6 35.565 6 25.031C6 15.003 14.289 6.79798 23.289 6.02798V0.000976562C10.289 0.779977 0 11.718 0 25.057C0 38.9 11.42 50.109 25.263 50.109C38.695 50.109 49.853 39.178 50.494 26.178H44.463Z" fill="white"/>
</svg>
