<svg width="48" height="43" viewBox="0 0 48 43" fill="none" xmlns="http://www.w3.org/2000/svg">
<path d="M46.6667 37.625H42.6667V9.53246C42.6667 7.24391 40.875 5.37527 38.6667 5.37527L29.3333 5.37611V10.7502H37.3333V43H46.6667C47.4063 43 48 42.4016 48 41.7318V39.12C48 38.2213 47.4083 37.625 46.6667 37.625ZM23.3583 0.084876L7.35833 4.26307C6.09167 4.57826 5.33333 5.69105 5.33333 6.96088V37.625H1.33333C0.59375 37.625 0 38.2234 0 38.8932V41.5051C0 42.4037 0.59375 43 1.33333 43H26.6667V2.78269C26.6667 0.977036 25.0417 -0.356039 23.3583 0.084876ZM19.3333 24.1876C18.2292 24.1876 17.3333 22.9808 17.3333 21.5757C17.3333 20.0959 18.2292 18.9638 19.3333 18.9638C20.4375 18.9638 21.3333 20.022 21.3333 21.5002C21.3333 22.9783 20.4417 24.1876 19.3333 24.1876Z" fill="white"/>
</svg>
