<svg width="42" height="62" viewBox="0 0 42 62" fill="none" xmlns="http://www.w3.org/2000/svg">
<path d="M34.3464 4.72619C29.4834 0.764015 23.0814 -0.81264 16.7855 0.399245C8.30946 2.03044 1.502 9.10414 0.231068 17.6015C-0.805597 24.5357 1.68613 31.4606 6.89667 36.1268C9.2444 38.2291 10.6608 41.257 10.8857 44.654C10.89 44.7156 10.9022 44.7751 10.9158 44.8339V55.4859C10.9158 56.0723 11.3965 56.5483 11.9904 56.5483H13.0615C13.4978 59.6357 15.7932 62 18.5579 62H23.4367C26.2014 62 28.4961 59.6357 28.9324 56.5483H30.0035C30.5967 56.5483 31.0781 56.0723 31.0781 55.4859V44.6639C31.0781 44.6618 31.0788 44.6596 31.0788 44.6568C31.0788 41.4964 32.5303 38.4444 35.1668 36.0631C39.5097 32.1406 42 26.5614 42 20.7569C42.0007 14.5325 39.211 8.68908 34.3464 4.72619ZM17.1974 24.8898H15.5461C14.6355 24.8898 13.8947 24.1574 13.8947 23.2572C13.8947 22.357 14.6355 21.6246 15.5461 21.6246C16.4566 21.6246 17.1974 22.357 17.1974 23.2572V24.8898ZM24.798 23.2572C24.798 22.357 25.5387 21.6246 26.45 21.6246C27.3606 21.6246 28.1014 22.357 28.1014 23.2572C28.1014 24.1574 27.3606 24.8898 26.45 24.8898H24.8001L24.798 23.2572ZM24.151 45.6434H28.9296V54.4234H27.9459C27.9438 54.4234 27.9416 54.4227 27.9388 54.4227C27.9359 54.4227 27.9345 54.4234 27.9316 54.4234H14.0631C14.0609 54.4234 14.0588 54.4227 14.0559 54.4227C14.053 54.4227 14.0516 54.4234 14.0487 54.4234H13.0658V45.6434H23.3579H24.151ZM19.3467 43.5186V27.0147H22.6544L22.6788 43.5186H19.3467ZM23.4367 59.8751H18.5579C16.9545 59.8751 15.6084 58.4557 15.2358 56.5483H26.7581C26.3863 58.4557 25.0401 59.8751 23.4367 59.8751ZM33.7174 34.4949C30.9434 37.0002 29.3014 40.1705 28.994 43.5186H24.8273L24.8037 27.0147H26.45C28.5456 27.0147 30.2507 25.329 30.2507 23.2572C30.2507 21.1855 28.5456 19.4997 26.45 19.4997C24.3538 19.4997 22.6487 21.1855 22.6487 23.2586L22.6508 24.8898H19.3467V23.2572C19.3467 21.1855 17.6416 19.4997 15.5461 19.4997C13.4505 19.4997 11.7454 21.1855 11.7454 23.2572C11.7454 25.329 13.4505 27.0147 15.5461 27.0147H17.1974V43.5186H12.9189C12.4633 39.9736 10.8671 36.8146 8.33884 34.5516C3.66202 30.3628 1.42535 24.1426 2.3567 17.9117C3.49653 10.2905 9.59831 3.94707 17.1953 2.48445C22.8607 1.3951 28.6136 2.80885 32.9781 6.36589C37.3454 9.92363 39.85 15.1692 39.85 20.7576C39.8514 25.9664 37.6155 30.974 33.7174 34.4949Z" fill="white"/>
</svg>
